<?xml version="1.0" encoding="UTF-8"?>
<svg width="46px" height="46px" viewBox="0 0 46 46" version="1.1" xmlns="http://www.w3.org/2000/svg" xmlns:xlink="http://www.w3.org/1999/xlink">
    <!-- Generator: Sketch 54.1 (76490) - https://sketchapp.com -->
    <title>1-进销存图标</title>
    <desc>Created with Sketch.</desc>
    <g id="页面1" stroke="none" stroke-width="1" fill="none" fill-rule="evenodd">
        <g id="登录界面2" transform="translate(-270.000000, -190.000000)" fill="#188FFF" fill-rule="nonzero">
            <g id="图标" transform="translate(270.000000, 189.000000)">
                <g id="1-进销存图标" transform="translate(0.000000, 1.000000)">
                    <path d="M25.8497145,0.00791501971 C25.206079,-0.0712716798 24.6446797,0.454440104 24.6446796,1.10443108 L24.6446796,6.68049575 C24.6446796,7.23040352 25.0514748,7.67802843 25.592041,7.77041288 C32.5042703,8.94941513 37.8419499,14.7608403 38.3145341,21.9107409 C38.3518145,22.4760461 38.8419424,22.9038743 39.4055347,22.9038743 L44.9000114,22.9038743 C45.5173313,22.9038743 46.029389,22.3913603 45.9986874,21.7721641 C45.4570248,10.5023546 36.8540187,1.37168626 25.8497145,0.00791501971 Z M43.79366,26.2033209 C43.0524374,26.2033209 42.3879687,26.7004375 42.2191103,27.4241161 C41.5022245,30.4584524 40.0792884,33.2794311 38.0667289,35.6562351 C34.6467982,36.4118084 28.3025472,37.2817625 23.0010515,35.0018449 C16.5690818,32.2369088 9.38821419,34.101096 7.22375663,34.7785824 C5.58070099,32.5931415 4.40928784,30.0885044 3.78408922,27.4241161 C3.61523082,26.7004374 2.95076207,26.2033209 2.20844305,26.2033209 C1.16459118,26.2033209 0.374026856,27.1788572 0.611963691,28.1983862 C2.99900732,38.3980752 12.1042028,46 23.002148,46 C33.8989968,46 43.0041922,38.3980752 45.3923323,28.1983862 C45.6291727,27.1788572 44.8375119,26.2033209 43.79366,26.2033209 L43.79366,26.2033209 Z M16.4221531,23.7804273 C16.4221531,27.5483952 19.3684031,30.6025829 23.0010515,30.6025829 C26.6347964,30.6025829 29.5799499,27.5483952 29.5799499,23.7804273 C29.5799499,22.1384027 28.4692126,19.8221913 27.1545294,17.731442 C25.4549806,15.0236962 23.4122327,10.8059037 23.0010515,10.8059037 C22.5887739,10.8059037 20.5350611,15.0401934 18.8311264,17.7589374 C17.5241186,19.8419879 16.4221531,22.1472013 16.4221531,23.7804273 L16.4221531,23.7804273 Z M6.59547182,22.9038743 C7.16016062,22.9038743 7.64919206,22.4760461 7.68756894,21.9107409 C8.16015313,14.7619401 13.4989292,8.94941513 20.410062,7.77041288 C20.9506282,7.67802839 21.3563269,7.22930364 21.3563269,6.68159553 L21.3563269,1.10553091 C21.3563269,0.454440105 20.7971205,-0.071271679 20.1523885,0.00791502047 C9.14698791,1.37168626 0.543981745,10.5034545 0.00122262525,21.773264 C-0.0283824348,22.3913603 0.483675176,22.9038743 1.10099512,22.9038743 L6.59437533,22.9038743 L6.59547182,22.9038743 Z" id="Shape"></path>
                </g>
            </g>
        </g>
    </g>
</svg>