<?xml version="1.0" encoding="UTF-8"?>
<svg width="22px" height="25px" viewBox="0 0 22 25" version="1.1" xmlns="http://www.w3.org/2000/svg" xmlns:xlink="http://www.w3.org/1999/xlink">
    <!-- Generator: Sketch 54.1 (76490) - https://sketchapp.com -->
    <title>密码</title>
    <desc>Created with Sketch.</desc>
    <g id="页面1" stroke="none" stroke-width="1" fill="none" fill-rule="evenodd">
        <g id="登录界面2" transform="translate(-1042.000000, -585.000000)">
            <g id="登录界面" transform="translate(1019.000000, 393.000000)">
                <g id="密码" transform="translate(0.000000, 135.000000)">
                    <g transform="translate(20.000000, 56.000000)">
                        <rect id="Rectangle" fill="#000000" opacity="0" x="0" y="0" width="28" height="28"></rect>
                        <path d="M21.7525047,26 L6.24732838,26 C5.26156107,26 4.59636988,25.8841633 4.09043724,25.6244421 C3.59299061,25.3690616 2.99999997,24.8279711 3,23.7003513 L3,11 L25,11 L25,23.7003513 C25,24.8279711 24.4070094,25.3690894 23.9095628,25.6244421 C23.4035745,25.8841633 22.7383276,26 21.7525047,26 L21.7525047,26 Z M4.1129182,12.1130115 L4.1129182,23.7003513 C4.1129182,24.4699431 4.45305382,24.8869885 6.24732838,24.8869885 L21.7525047,24.8869885 C23.5468906,24.8869885 23.8870818,24.4699431 23.8870818,23.7003513 L23.8870818,12.1130115 L4.1129182,12.1130115 Z" id="Shape" fill="#CCCCCC" fill-rule="nonzero"></path>
                        <path d="M22,12 L6,12 L6,11.4164116 C6,11.2946167 6.0038795,9.76401009 6.0145275,9.53737353 C6.13437955,6.96132666 6.99532772,4.78646765 8.50429135,3.24812854 C9.21988179,2.51861382 10.0608271,1.95440052 11.0037127,1.57112881 C11.9361979,1.19217565 12.9442923,1 13.9999862,1 C15.0497096,1 16.0521085,1.18914102 16.9792835,1.56217073 C17.9178769,1.93978164 18.7558506,2.49634992 19.4699828,3.2164105 C20.9756722,4.73458662 21.8440218,6.88805712 21.9811803,9.44397021 C21.9952125,9.70766464 22,11.2852501 22,11.4164116 L22,12 L22,12 Z M7.1022756,10.8328231 L20.8973392,10.8328231 C20.8946153,10.3103364 20.8893601,9.64145652 20.8823714,9.51003241 C20.6430251,5.04952013 17.9415391,2.16717687 13.9999862,2.16717687 C10.0878186,2.16717687 7.32046352,5.15226087 7.11374902,9.59517798 C7.10852132,9.7064683 7.10444922,10.3332714 7.1022756,10.8328231 Z" id="Shape" fill="#CCCCCC" fill-rule="nonzero"></path>
                        <polygon id="Path" fill="#CCCCCC" points="14 16 15 16 15 22 14 22"></polygon>
                    </g>
                </g>
            </g>
        </g>
    </g>
</svg>